<svg width="45" height="45" viewBox="0 0 45 45" fill="none" xmlns="http://www.w3.org/2000/svg">
<g clip-path="url(#clip0_701_124)">
<g clip-path="url(#clip1_701_124)">
<rect y="19" width="45" height="26" fill="url(#paint0_radial_701_124)"/>
<path d="M15.5 28.5C8.7 33.3 2.33333 35.1667 0 35.5V0H45V22C39.4 19.6 32.3333 20.3333 29.5 21C27.6667 21.5 22.3 23.7 15.5 28.5Z" fill="white"/>
<path d="M3.5 45C21.1 29.4 38.5 31.8333 45 35V45H3.5Z" fill="white"/>
<path d="M16.5 14C8.93363 14 1.83333 9.33333 0 6.5V27.5H45V5C43 5 40 5.5 34.5 8.5C29 11.5 23 14 16.5 14Z" fill="url(#paint1_radial_701_124)"/>
<g style="mix-blend-mode:multiply">
<rect width="45" height="45" fill="url(#paint2_linear_701_124)"/>
</g>
<path d="M11.9076 32.4544C9.9055 30.5308 8.54205 28.08 7.98967 25.4119C7.4373 22.7438 7.7208 19.9782 8.80433 17.465C9.88785 14.9517 11.7227 12.8035 14.077 11.2922C16.4312 9.78083 19.199 8.97415 22.0304 8.97415C24.8618 8.97415 27.6296 9.78083 29.9838 11.2922C32.338 12.8035 34.1729 14.9517 35.2565 17.465C36.34 19.9782 36.6235 22.7438 36.0711 25.4119C35.5187 28.08 34.1553 30.5308 32.1532 32.4544L30.1286 30.5092C31.7303 28.9703 32.8211 27.0097 33.263 24.8752C33.7049 22.7407 33.4781 20.5283 32.6112 18.5177C31.7444 16.507 30.2765 14.7885 28.3931 13.5795C26.5098 12.3704 24.2955 11.725 22.0304 11.725C19.7653 11.725 17.551 12.3704 15.6676 13.5795C13.7843 14.7885 12.3164 16.507 11.4495 18.5177C10.5827 20.5283 10.3559 22.7407 10.7978 24.8752C11.2397 27.0097 12.3305 28.9703 13.9322 30.5092L11.9076 32.4544Z" fill="#323D68"/>
<path d="M11.9076 32.4544C10.2081 30.8215 8.96377 28.8037 8.28949 26.5872C7.61521 24.3707 7.53263 22.0267 8.04937 19.7714C8.56611 17.5162 9.66553 15.4222 11.2463 13.6826C12.827 11.9431 14.8381 10.6139 17.0943 9.81764L18.0815 12.3998C16.2766 13.0368 14.6677 14.1002 13.4031 15.4918C12.1385 16.8835 11.259 18.5586 10.8456 20.3629C10.4322 22.1671 10.4982 24.0422 11.0377 25.8155C11.5771 27.5887 12.5725 29.2029 13.9322 30.5092L11.9076 32.4544Z" fill="#06D71F"/>
<path d="M11.0968 33.2331C8.94037 31.1537 7.47181 28.5043 6.87685 25.62C6.28188 22.7358 6.58724 19.7462 7.7543 17.0293C8.92137 14.3123 10.8977 11.9902 13.4334 10.3564C15.9692 8.72256 18.9504 7.85052 22 7.85052C25.0497 7.85052 28.0309 8.72256 30.5666 10.3564C33.1023 11.9902 35.0787 14.3124 36.2458 17.0293C37.4128 19.7462 37.7182 22.7358 37.1232 25.6201C36.5283 28.5043 35.0597 31.1537 32.9032 33.2331L32.4569 32.8027C34.5251 30.8084 35.9335 28.2675 36.5041 25.5013C37.0747 22.7351 36.7819 19.8679 35.6626 17.2622C34.5433 14.6565 32.6479 12.4294 30.216 10.8625C27.784 9.29553 24.9249 8.45919 22 8.45919C19.0752 8.45919 16.216 9.29553 13.7841 10.8624C11.3522 12.4294 9.45675 14.6565 8.33746 17.2622C7.21818 19.8679 6.92532 22.7351 7.49593 25.5013C8.06653 28.2675 9.47498 30.8084 11.5432 32.8027L11.0968 33.2331Z" fill="#C81111"/>
<path d="M11.0968 33.2331C9.32524 31.5248 8.01202 29.4259 7.27081 27.1182C6.5296 24.8104 6.38272 22.3632 6.84288 19.9884C7.30304 17.6136 8.35638 15.3826 9.91176 13.4886C11.4671 11.5946 13.4777 10.0946 15.7694 9.11843C18.0612 8.14222 20.5651 7.71921 23.0646 7.886C25.564 8.05279 27.9836 8.80436 30.1141 10.0757C32.2445 11.347 34.0217 13.0997 35.2917 15.1823C36.5617 17.2648 37.2863 19.6144 37.4028 22.0277L36.7723 22.056C36.6605 19.7415 35.9656 17.4881 34.7476 15.4908C33.5295 13.4935 31.8252 11.8125 29.7819 10.5932C27.7387 9.37398 25.4181 8.65317 23.021 8.49321C20.6239 8.33325 18.2224 8.73895 16.0245 9.67519C13.8266 10.6114 11.8983 12.05 10.4066 13.8665C8.9149 15.683 7.90467 17.8226 7.46335 20.1002C7.02202 22.3778 7.16289 24.7248 7.87376 26.9381C8.58463 29.1514 9.84409 31.1643 11.5432 32.8027L11.0968 33.2331Z" fill="#D5D547"/>
<path d="M11.0968 33.2331C8.48461 30.7142 6.89706 27.3746 6.62304 23.8222C6.34903 20.2697 7.40677 16.7404 9.60379 13.8766C11.8008 11.0127 14.9911 9.00467 18.594 8.2178C22.197 7.43093 25.9732 7.91755 29.2355 9.58912L28.9393 10.1266C25.8106 8.52347 22.189 8.05677 18.7335 8.81143C15.278 9.56609 12.2183 11.4919 10.1112 14.2386C8.00416 16.9852 6.98971 20.37 7.25251 23.777C7.51531 27.1841 9.03788 30.3869 11.5432 32.8027L11.0968 33.2331Z" fill="#06D71F"/>
<rect x="15" y="18" width="14" height="6" fill="#06D71F"/>
<rect x="18" y="27" width="8" height="4" fill="#9FCCEC"/>
</g>
</g>
<defs>
<radialGradient id="paint0_radial_701_124" cx="0" cy="0" r="1" gradientUnits="userSpaceOnUse" gradientTransform="translate(16.5 25) rotate(54.6888) scale(14.7054 32.7857)">
<stop stop-color="#D9D9D9"/>
<stop offset="1" stop-color="#D9D9D9" stop-opacity="0"/>
</radialGradient>
<radialGradient id="paint1_radial_701_124" cx="0" cy="0" r="1" gradientUnits="userSpaceOnUse" gradientTransform="translate(18.5 -2) rotate(70.3462) scale(22.2991 44.5982)">
<stop stop-color="#D9D9D9"/>
<stop offset="1" stop-color="#D9D9D9" stop-opacity="0"/>
</radialGradient>
<linearGradient id="paint2_linear_701_124" x1="45" y1="0" x2="0" y2="45" gradientUnits="userSpaceOnUse">
<stop stop-color="#82A0D9"/>
<stop offset="1" stop-color="#15174E"/>
</linearGradient>
<clipPath id="clip0_701_124">
<rect width="45" height="45" fill="white"/>
</clipPath>
<clipPath id="clip1_701_124">
<rect width="45" height="45" rx="8" fill="white"/>
</clipPath>
</defs>
</svg>
